<svg width="34" height="34" viewBox="0 0 34 34" fill="none" xmlns="http://www.w3.org/2000/svg">
<g clip-path="url(#clip0)">
<path d="M33.8198 24.8198C33.7786 24.7311 33.7402 24.6575 33.7046 24.5985C33.1147 23.5361 31.9874 22.232 30.3234 20.686L30.2882 20.6506L30.2706 20.6332L30.2528 20.6154H30.235C29.4798 19.8955 29.0015 19.4114 28.8013 19.1636C28.4348 18.6915 28.3527 18.2136 28.553 17.7295C28.6945 17.3636 29.226 16.5911 30.1463 15.4107C30.6303 14.7852 31.0137 14.2838 31.2968 13.9061C33.3386 11.1916 34.2238 9.45698 33.9523 8.7016L33.8468 8.52508C33.7759 8.4188 33.593 8.32158 33.2983 8.23292C33.0029 8.14444 32.6254 8.1298 32.165 8.18877L27.0669 8.22399C26.9843 8.19472 26.8663 8.19745 26.7127 8.23292C26.5592 8.26838 26.4825 8.28618 26.4825 8.28618L26.3937 8.33051L26.3233 8.38377C26.2643 8.41899 26.1994 8.48093 26.1285 8.56947C26.058 8.6577 25.999 8.76125 25.9519 8.87924C25.3969 10.3072 24.7658 11.6349 24.0575 12.8622C23.6208 13.594 23.2198 14.2283 22.8535 14.7653C22.4878 15.3021 22.1809 15.6976 21.9333 15.9511C21.6853 16.2049 21.4614 16.4082 21.2604 16.5618C21.0597 16.7155 20.9065 16.7804 20.8004 16.7566C20.6941 16.7329 20.594 16.7093 20.4992 16.6858C20.334 16.5795 20.2012 16.435 20.1011 16.252C20.0005 16.0691 19.9328 15.8389 19.8974 15.5616C19.8622 15.2841 19.8414 15.0453 19.8354 14.8446C19.8299 14.6442 19.8324 14.3606 19.8444 13.9948C19.8567 13.6288 19.8622 13.3812 19.8622 13.2513C19.8622 12.8028 19.8709 12.316 19.8885 11.7909C19.9063 11.2657 19.9208 10.8496 19.9329 10.543C19.9449 10.2362 19.9505 9.91153 19.9505 9.56927C19.9505 9.22701 19.9297 8.9586 19.8885 8.76379C19.8478 8.56922 19.7854 8.38036 19.7031 8.19726C19.6203 8.01435 19.4992 7.87286 19.3402 7.77242C19.1809 7.6721 18.9829 7.59248 18.7472 7.53333C18.1216 7.39178 17.3251 7.3152 16.3572 7.3033C14.1622 7.27974 12.7518 7.42148 12.1263 7.72833C11.8785 7.85798 11.6542 8.03512 11.4537 8.2592C11.2412 8.51894 11.2116 8.66068 11.365 8.68399C12.0732 8.79008 12.5745 9.04386 12.8696 9.44508L12.9759 9.65769C13.0586 9.81109 13.1412 10.0827 13.2239 10.472C13.3064 10.8614 13.3597 11.2922 13.3831 11.764C13.442 12.6257 13.442 13.3633 13.3831 13.9768C13.324 14.5907 13.2682 15.0685 13.2149 15.4108C13.1617 15.753 13.0821 16.0304 12.9759 16.2427C12.8696 16.4552 12.7988 16.585 12.7634 16.6321C12.728 16.6793 12.6985 16.709 12.675 16.7206C12.5216 16.7794 12.3621 16.8093 12.197 16.8093C12.0316 16.8093 11.8311 16.7266 11.5951 16.5613C11.3592 16.396 11.1143 16.169 10.8606 15.8798C10.6068 15.5905 10.3206 15.1863 10.0018 14.6671C9.6833 14.1479 9.35283 13.5343 9.01057 12.8262L8.7274 12.3127C8.55038 11.9823 8.30857 11.5013 8.00171 10.87C7.69467 10.2385 7.42328 9.62768 7.18736 9.03759C7.09305 8.78977 6.95138 8.60109 6.76258 8.47126L6.67397 8.418C6.61507 8.37087 6.52051 8.32084 6.3908 8.26751C6.26091 8.21425 6.12537 8.17606 5.98363 8.15256L1.13317 8.18778C0.637518 8.18778 0.301212 8.30006 0.124131 8.52433L0.0532608 8.63042C0.017857 8.68951 0 8.78388 0 8.91377C0 9.04361 0.0354039 9.20296 0.106274 9.39163C0.814351 11.0558 1.58437 12.6608 2.41633 14.2067C3.24829 15.7527 3.97125 16.9981 4.58477 17.9416C5.19842 18.8859 5.82391 19.7771 6.46124 20.6147C7.09857 21.4527 7.52044 21.9897 7.72685 22.2256C7.93351 22.462 8.09583 22.6387 8.21382 22.7567L8.65647 23.1815C8.9397 23.4648 9.35562 23.8041 9.90441 24.1993C10.4533 24.5948 11.061 24.9842 11.7278 25.3681C12.3947 25.7513 13.1706 26.0641 14.0558 26.3059C14.9409 26.5481 15.8023 26.6452 16.6403 26.5984H18.6761C19.089 26.5627 19.4018 26.4329 19.6144 26.2088L19.6849 26.1201C19.7322 26.0496 19.7766 25.9402 19.8175 25.7929C19.8589 25.6454 19.8795 25.4829 19.8795 25.3061C19.8674 24.7988 19.906 24.3415 19.9943 23.9344C20.0826 23.5274 20.1831 23.2205 20.2956 23.0139C20.408 22.8074 20.5349 22.6332 20.6761 22.4919C20.8175 22.3504 20.9184 22.2646 20.9775 22.2351C21.0363 22.2054 21.0832 22.1853 21.1186 22.1732C21.4019 22.0788 21.7352 22.1702 22.1191 22.4478C22.5027 22.7251 22.8625 23.0676 23.1991 23.4746C23.5355 23.8819 23.9396 24.339 24.4116 24.8463C24.8838 25.3539 25.2968 25.7312 25.6507 25.9794L26.0046 26.1918C26.241 26.3335 26.5478 26.4634 26.9256 26.5814C27.3026 26.6993 27.6329 26.7288 27.9166 26.6698L32.4482 26.5992C32.8965 26.5992 33.2452 26.5249 33.4926 26.3777C33.7405 26.2302 33.8878 26.0677 33.9353 25.8909C33.9826 25.7139 33.9852 25.5132 33.9443 25.2887C33.9023 25.0648 33.8609 24.9083 33.8198 24.8198Z" fill="white"/>
</g>
<defs>
<clipPath id="clip0">
<rect width="34" height="34" fill="white"/>
</clipPath>
</defs>
</svg>
